<svg xmlns="http://www.w3.org/2000/svg" viewBox="0 0 32 32">
  <rect width="32" height="32" rx="4" fill="#c92a2a"/>
  <g transform="translate(6, 4)" fill="none" stroke="#ffffff" stroke-width="2" stroke-linecap="round" stroke-linejoin="round">
    <!-- TreePine icon from Lucide, scaled to fit -->
    <path d="M17 14h.01"/>
    <path d="M7 14h.01"/>
    <path d="M12 3 4 11h4v6h8v-6h4Z"/>
    <path d="M12 21v2"/>
    <path transform="scale(0.8) translate(2, 3)" d="m17 14 3 3.3a1 1 0 0 1-.7 1.7H4.7a1 1 0 0 1-.7-1.7L7 14h-.3a1 1 0 0 1-.7-1.7L9 9h-.2A1 1 0 0 1 8 7.3L12 3l4 4.3a1 1 0 0 1-.8 1.7H15l3 3.3a1 1 0 0 1-.7 1.7H17Z"/>
  </g>
</svg>
